<?xml version="1.0" encoding="UTF-8"?>
<svg width="414px" height="250px" viewBox="0 0 414 250" version="1.1" xmlns="http://www.w3.org/2000/svg" xmlns:xlink="http://www.w3.org/1999/xlink">
    <title>Logo1_colored</title>
    <g id="logo" stroke="none" stroke-width="1" fill="none" fill-rule="evenodd">
        <g id="A4" transform="translate(-90.000000, -95.000000)">
            <g id="Group" transform="translate(90.930381, 95.736411)">
                <path d="M396.207113,153.383854 C404.580745,164.540164 408.573542,175.728637 408.185505,186.949272 C407.797468,198.169908 402.740306,217.759028 393.01402,245.716633 L333.850924,246.018076 C341.371688,229.503985 346.449195,217.036489 349.083444,208.615587 C351.717693,200.194685 353.740209,189.96555 355.15099,177.928181 L396.207113,153.383854 Z M18.2388797,145.310464 L29.7580858,165.767102 L60.4652983,174.076619 L57.908633,202.428978 L59.203962,211.024246 L69.3401987,226.137096 L78.4276672,245.432026 L20.51043,245.716633 L3.91995083,204.626926 L7.73213954,160.659659 L18.2388797,145.310464 Z M292.264931,5.62229179 L331.610733,34.6537737 L355.15099,53.2837115 L339.680967,61.723669 L298.958018,61.723669 L280.305947,72.5072604 L286.426476,82.942333 L307.443828,153.383854 L292.264931,199.704693 C274.56335,217.639741 258.779962,228.891531 244.914767,233.460064 C231.049571,238.028596 208.171241,239.515705 176.279775,237.92139 C152.002246,230.647172 135.776595,222.299646 127.602822,212.878809 C119.429048,203.457973 113.309908,186.05159 109.2454,160.659659 L103.180511,153.626951 L125.772814,82.5537344 C127.070051,81.0413727 128.056221,79.4353281 128.731326,77.7356005 C129.40643,76.0358729 130.129445,73.3386595 130.900369,69.6439601 L115.388429,61.723669 L86.0591802,61.723669 L60.794701,58.5892385 C58.6737157,53.2214063 58.6737157,50.5374903 60.794701,50.5374903 C62.9156863,50.5374903 80.0434527,36.50102 112.178,8.42807956 L141.394517,15.1365004 L159.60937,50.5374903 L204.675948,43.580522 L251.322548,53.2837115 L263.96708,30.8558955 L271.774697,15.1365004 L292.264931,5.62229179 Z" id="Combined-Shape" fill="#F6C8C8"></path>
                <path d="M189.253212,185.296194 C191.617136,171.556765 194.516903,162.290063 197.952514,157.496086 C201.388124,152.702109 207.603591,149.24961 216.598915,147.138589 C230.418306,149.045406 239.534839,152.497905 243.948513,157.496086 C248.362188,162.494266 250.477426,171.760969 250.294228,185.296194 C236.235387,189.771508 225.647496,192.009166 218.530556,192.009166 C211.413616,192.009166 201.654502,189.771508 189.253212,185.296194 Z" id="Path-13" fill="#FAA4A4"></path>
                <path d="M47.0794655,127.410073 L52.8135478,137.736573 L63.976179,134.494058 C67.1587593,142.802406 68.7500494,149.099005 68.7500494,153.383854 C68.7500494,157.668703 67.1587593,164.045326 63.976179,172.513723 L63.976179,172.513723 L27.3806801,165.767102 L19.2317681,147.138589 L27.3806801,137.736573 L47.0794655,127.410073 Z M368.323026,126.800698 L394.196639,145.310464 L383.301537,164.14949 L349.083444,172.243105 L343.355454,154.895571 L350.69662,133.579995 L360.32664,134.494058 L368.323026,126.800698 Z" id="Combined-Shape" fill="#FAA4A4"></path>
                <path d="M307.443828,153.383854 C308.608852,161.930847 308.638115,169.035314 307.466039,174.76029 L307.158598,176.250032 L306.705251,178.397629 L306.25876,180.445335 L305.963509,181.757495 C305.914403,181.972761 305.865336,182.186335 305.816291,182.398248 L305.522145,183.650042 L305.227685,184.863481 L304.932072,186.040074 C304.783837,186.61941 304.634854,187.185496 304.484651,187.73918 L304.182478,188.830264 C304.131797,189.009439 304.080947,189.187299 304.029908,189.363876 L303.721278,190.408184 L303.407293,191.423196 C300.92458,199.263324 297.871678,204.545955 292.431231,210.537062 L291.723596,211.305985 C291.603448,211.434864 291.482185,211.564127 291.359788,211.693804 L290.611668,212.477104 L289.835507,213.271876 L289.030466,214.07963 L288.195704,214.901876 L287.330381,215.740124 L286.433657,216.595884 L285.504692,217.470666 L284.542645,218.36598 L283.035709,219.750751 L281.987282,220.704001 L280.902833,221.683067 C269.150127,232.260623 249.761911,242.158986 228.404573,246.316413 C199.489563,251.94502 169.203614,247.08799 139.289208,229.216724 C112.394448,213.149436 100.240066,187.999167 103.089569,154.640337 L103.180511,153.626951 L113.634388,154.61003 C110.819701,184.54089 121.0758,206.104744 144.67426,220.202779 C172.32128,236.719477 199.972373,241.153949 226.398297,236.009869 C245.585663,232.27485 263.031862,223.450978 273.448706,214.261607 L274.376308,213.430162 L275.816757,212.126004 L276.734369,211.288753 L278.048884,210.077351 L279.291668,208.914755 L280.081758,208.164268 L280.842095,207.431666 C280.966386,207.310972 281.089472,207.19096 281.211372,207.071597 L281.928676,206.36297 L282.618353,205.668424 L283.281256,204.986436 C283.389556,204.873733 283.496776,204.76149 283.602933,204.649676 L284.22727,203.983671 L284.826959,203.32642 C284.924901,203.217523 285.021851,203.108927 285.117827,203.000601 L285.682141,202.353625 C288.170246,199.454508 289.97431,196.705678 291.44328,193.482973 L291.764344,192.758762 L292.075227,192.017428 C292.228265,191.642227 292.377804,191.260034 292.524324,190.869992 L292.813477,190.079192 C292.908614,189.811935 293.00255,189.540936 293.095428,189.265941 L293.371028,188.428718 C293.416479,188.287098 293.461701,188.144416 293.506711,188.000641 L293.774379,187.124604 L294.037822,186.220791 C294.081425,186.067756 294.124887,185.9135 294.168226,185.757991 L294.426928,184.809657 C294.469847,184.649011 294.512678,184.48705 294.55544,184.323741 L294.811317,183.327461 L295.066373,182.297315 L295.32146,181.23178 L295.577428,180.129335 L295.964895,178.40313 L296.22679,177.20175 L296.492546,175.958131 L296.900277,174.010177 L297.179405,172.654305 C298.054436,168.380242 298.058696,162.642294 297.132566,155.497769 L297.040034,154.801974 L307.443828,153.383854 Z M50.5854259,118.717505 L52.9032271,128.158528 L53.5394128,130.838754 L53.5431284,130.858688 C55.8271433,129.965282 58.2497053,129.221203 60.8086756,128.627875 L61.3592743,128.503006 L64.166621,127.880468 L65.9109725,130.16651 C76.9248136,144.600584 76.3315967,163.052016 64.7065592,184.837141 L64.6082214,185.017574 L64.4978848,185.461493 C61.9612648,195.919168 64.5379486,207.881817 72.4241231,221.360686 L73.1130883,222.519731 C75.4530124,226.395593 78.2268218,230.395255 81.4390923,234.518979 L82.4159319,235.759818 L83.4191066,237.008103 C83.7578904,237.425438 84.101068,237.844015 84.4486439,238.263834 L85.5045712,239.527014 L86.0591802,240.181047 L79.2086991,246.018076 C59.0716196,222.384704 51.1010421,201.276046 55.9050536,182.726964 L56.0545406,182.165654 L56.1915589,181.664982 L56.4389691,181.208653 C57.0735151,180.038284 57.6715839,178.883749 58.2333091,177.74489 C56.9090244,177.632733 55.4932071,177.464584 53.992723,177.23322 C46.5086459,176.079226 38.3290055,173.593728 29.7053222,169.42149 C24.6807912,166.990563 20.5225259,161.767793 16.9860691,153.814966 C14.6081821,157.378725 12.9136964,161.003642 11.7784727,164.690484 L11.4868069,165.66102 L11.3146683,166.264489 L11.158665,166.842018 L11.0173322,167.401241 L10.8892053,167.94979 L10.7728194,168.4953 L10.6667099,169.045402 C10.6497999,169.137892 10.6332572,169.230892 10.617051,169.32456 L10.5236096,169.895864 L10.4367827,170.490842 L10.3551055,171.117129 L10.2771134,171.782358 L10.1638304,172.869913 L10.0120129,174.527523 L9.87029963,176.205645 L9.82935816,176.642146 L9.80836286,176.840598 C6.77344607,204.327381 12.2844426,225.75112 26.0356001,239.462804 L26.4548237,239.875948 L20.1752331,246.323175 C4.05078698,230.617987 -2.35381083,206.63281 0.765293375,176.759917 L0.896590896,175.510672 L1.09794179,173.016572 C1.1901103,171.96465 1.2958946,170.989387 1.43418812,169.980405 C1.79690581,167.334036 2.35043091,164.726392 3.17699368,162.041983 C5.33371026,155.037661 9.12772017,148.258466 15.0151734,141.793919 C23.8349485,132.10962 33.8751547,125.083053 45.1051547,120.762371 L45.8555836,120.478335 L50.5854259,118.717505 Z M362.474197,118.717505 L367.204039,120.478335 L367.954468,120.762371 C379.184468,125.083053 389.224674,132.10962 398.04445,141.793919 C403.931903,148.258466 407.725913,155.037661 409.882629,162.041983 C410.709192,164.726392 411.262717,167.334036 411.625435,169.980405 C411.763728,170.989387 411.869513,171.96465 411.961681,173.016572 L411.961681,173.016572 L412.163032,175.510672 L412.29433,176.759917 C415.413434,206.63281 409.008836,230.617987 392.88439,246.323175 L392.88439,246.323175 L386.604799,239.875948 L387.024023,239.462804 C400.77518,225.75112 406.286177,204.327381 403.25126,176.840598 L403.25126,176.840598 L403.230265,176.642146 L403.189323,176.205645 L403.04761,174.527523 L402.895793,172.869913 L402.78251,171.782358 L402.704517,171.117129 L402.62284,170.490842 L402.536013,169.895864 L402.442572,169.32456 C402.426366,169.230892 402.409823,169.137892 402.392913,169.045402 L402.392913,169.045402 L402.286804,168.4953 L402.170418,167.94979 L402.042291,167.401241 L401.900958,166.842018 L401.744955,166.264489 L401.572816,165.66102 L401.28115,164.690484 C400.145927,161.003642 398.451441,157.378725 396.073554,153.814966 C392.537097,161.767793 388.378832,166.990563 383.354301,169.42149 C374.730618,173.593728 366.550977,176.079226 359.0669,177.23322 C357.566416,177.464584 356.150599,177.632733 354.826314,177.74489 C355.388039,178.883749 355.986108,180.038284 356.620654,181.208653 L356.620654,181.208653 L356.868064,181.664982 L357.005082,182.165654 L357.154569,182.726964 C361.958581,201.276046 353.988003,222.384704 333.850924,246.018076 L333.850924,246.018076 L327.000443,240.181047 L327.555052,239.527014 L328.610979,238.263834 C328.958555,237.844015 329.301733,237.425438 329.640516,237.008103 L329.640516,237.008103 L330.643691,235.759818 L331.620531,234.518979 C334.832801,230.395255 337.606611,226.395593 339.946535,222.519731 L339.946535,222.519731 L340.6355,221.360686 C348.521674,207.881817 351.098358,195.919168 348.561738,185.461493 L348.561738,185.461493 L348.451402,185.017574 L348.353064,184.837141 C336.728026,163.052016 336.134809,144.600584 347.14865,130.16651 L347.14865,130.16651 L348.893002,127.880468 L351.700349,128.503006 L352.250947,128.627875 C354.809918,129.221203 357.23248,129.965282 359.516495,130.858688 L359.516495,130.858688 L359.52021,130.838754 L360.156396,128.158528 L362.474197,118.717505 Z M165.004574,183.667112 C166.550122,191.039865 169.832732,196.385578 174.679952,200.349403 C178.494346,203.468634 182.932124,205.562702 189.104298,207.544719 C195.331437,209.544386 201.164865,210.45645 206.61332,210.303429 C209.097622,210.233658 211.168108,212.191021 211.23788,214.675323 C211.307652,217.159624 209.350289,219.23011 206.865987,219.299882 C200.354074,219.48277 193.513365,218.413217 186.352602,216.113743 C179.201386,213.817335 173.836553,211.285814 168.982604,207.316485 C162.555365,202.060595 158.166493,194.913339 156.196037,185.513642 C155.686132,183.081232 157.24463,180.696014 159.677041,180.186109 C162.109451,179.676203 164.494669,181.234701 165.004574,183.667112 Z M229.938619,128.885589 L227.061806,134.037026 L229.346962,139.445229 L227.061806,140.359292 L226.604775,141.273354 L225.61454,141.273354 L225.61454,141.806558 L225.081337,141.806558 L225.081337,142.187417 L224.74511,142.190987 C223.975853,142.20765 223.313515,142.282632 222.758095,142.415933 C222.517487,142.473679 222.287822,142.562434 222.069103,142.682198 C235.366465,143.096573 245.556596,149.974176 251.277542,160.656694 C256.227502,169.899576 256.961674,180.866947 252.707499,186.378679 L252.510689,186.62543 L252.133229,187.070608 C248.572483,191.152718 243.521208,193.700261 235.487742,194.951779 L234.947743,195.033296 L234.057276,195.156806 L233.603185,195.214846 L233.603185,195.214846 L233.143121,195.27042 L232.204865,195.374203 L231.242095,195.468221 L230.997524,195.490207 L230.997524,195.490207 L230.751389,195.511589 L229.751074,195.591083 L228.725213,195.660978 L228.464707,195.67696 L228.464707,195.67696 L228.202573,195.692347 L227.137618,195.747966 L226.867243,195.760394 L226.867243,195.760394 L226.5952,195.772234 L225.490222,195.813726 L224.358046,195.845883 L223.198259,195.868771 L222.903949,195.873052 L222.903949,195.873052 L222.607882,195.876759 L221.405904,195.885866 L220.794199,195.887001 L218.903278,195.882825 L216.523312,195.863706 L214.839322,195.838605 L213.237638,195.803769 L211.714434,195.758735 L210.740674,195.72282 L209.79896,195.682031 L208.888156,195.636232 L207.577429,195.557841 L206.738942,195.498918 L205.927398,195.434507 L205.141662,195.364471 L204.3806,195.288673 L203.282792,195.163875 L202.578456,195.073075 L201.894826,194.976035 L201.230768,194.872619 L200.585148,194.76269 L199.956832,194.646111 L199.344686,194.522745 L198.747576,194.392456 C192.704913,193.022076 188.758327,190.381055 186.606151,185.891977 C184.142931,180.754113 185.767153,169.804337 190.508609,161.019475 C195.867938,151.089832 204.466355,144.46437 215.829609,142.979797 L215.805296,142.93644 C215.590886,142.547117 215.382119,142.157795 215.178994,141.768472 C214.874306,141.184487 214.721962,140.49894 214.721962,139.711831 L214.721962,139.711831 L214.721962,137.693276 L215.05819,137.575448 C215.827446,137.292184 216.489785,136.950601 217.045205,136.550698 C217.67997,136.093667 218.314736,135.484292 218.949501,134.722573 C219.584267,133.960854 220.384072,133.656167 221.348915,133.808511 C222.313759,133.960854 223.253212,134.037026 224.167275,134.037026 L224.167275,134.037026 L224.167275,133.199136 L225.081337,133.199136 L225.081337,132.285073 L226.071572,132.285073 L226.071572,131.371011 L229.938619,128.885589 Z M220.794199,149.863589 C209.778736,149.863589 201.771284,155.311254 196.844642,164.439224 C193.157677,171.27035 191.849582,179.767065 193.031627,182.62888 L193.098573,182.779347 L193.232529,183.044597 L193.376843,183.302591 L193.453017,183.428891 L193.453017,183.428891 L193.531938,183.553407 L193.698239,183.797124 L193.876169,184.033821 L194.066153,184.263574 L194.165797,184.375872 L194.165797,184.375872 L194.268614,184.486463 L194.483976,184.702566 C194.607284,184.820752 194.736761,184.935833 194.872734,185.047869 L195.081607,185.213646 L195.345463,185.406613 C195.616652,185.59635 195.910056,185.776435 196.227581,185.947221 L196.553217,186.114921 L196.895358,186.276499 L197.072751,186.355017 L197.072751,186.355017 L197.254429,186.432034 L197.630852,186.581604 L197.727719,186.618074 L197.727719,186.618074 L197.825704,186.654177 L198.228952,186.794947 L198.650613,186.929947 L198.758955,186.962805 L198.758955,186.962805 L198.868481,186.995308 L199.318556,187.121801 L199.788104,187.242721 L200.27755,187.358145 L200.787316,187.468152 L201.317827,187.57282 L201.453746,187.598162 L201.453746,187.598162 L201.590994,187.623177 L202.153417,187.719983 L202.737645,187.811646 L203.655799,187.939668 L204.296394,188.018815 L205.301085,188.128429 L206.000696,188.195548 L206.724657,188.257994 L207.857178,188.34307 L208.643865,188.394173 L209.872463,188.462602 L210.724526,188.502851 L211.603482,188.538896 L212.509754,188.570814 L213.443766,188.598684 L215.396708,188.642594 L216.416486,188.658789 L217.4657,188.671249 L219.095641,188.683107 L221.371656,188.686012 L222.502326,188.678093 L223.601111,188.662243 L224.66854,188.638447 L225.705143,188.606691 L225.959538,188.597507 L225.959538,188.597507 L226.212049,188.587824 L227.203403,188.544103 L228.165252,188.492388 L229.098126,188.432666 L229.326879,188.416482 L229.326879,188.416482 L229.553863,188.399797 L230.444265,188.328037 L231.307015,188.248234 L232.142642,188.160375 L232.951673,188.064445 L233.734638,187.960432 L234.492067,187.848322 C234.823105,187.796693 235.146734,187.742661 235.463162,187.686221 L235.93243,187.599752 L236.616422,187.463266 L236.949602,187.391966 L236.949602,187.391966 L237.276993,187.318626 L237.914672,187.16582 L238.529989,187.004833 L239.123472,186.835652 L239.412191,186.747984 L239.412191,186.747984 L239.69565,186.658262 L240.247053,186.47265 C240.487582,186.388327 240.722112,186.301564 240.950852,186.212355 L241.289646,186.076706 L241.781895,185.866345 L242.020989,185.758062 L242.020989,185.758062 L242.255484,185.647708 L242.710943,185.420779 C243.393202,185.067741 244.013834,184.685627 244.581329,184.274213 L244.915518,184.023848 L245.266021,183.74269 L245.602361,183.453137 L245.602361,183.453137 L245.925067,183.155176 L246.234667,182.848792 C246.487354,182.589959 246.726941,182.322338 246.954805,182.045894 C249.22093,179.296636 248.723513,171.138523 244.930434,164.055842 C240.233051,155.284588 231.943577,149.863589 220.794199,149.863589 Z M213.752011,167.402686 C215.017334,170.501379 213.615183,172.745659 212.486688,174.704674 C212.238419,175.135657 211.964707,175.668313 211.662198,176.215695 L211.494317,176.515205 C210.441189,178.364743 209.055336,180.202037 207.209054,178.71821 C203.567671,175.79169 204.533125,172.770214 205.91265,169.275295 C207.209054,165.990955 212.486688,164.303994 213.752011,167.402686 Z M236.024467,170.383149 L236.178595,170.759134 C236.281486,171.010998 236.384888,171.264944 236.490207,171.518968 C237.938335,175.011803 236.67269,178.658911 233.230384,178.658911 C230.592589,178.658911 230.592589,177.840582 228.628353,175.011803 C226.664116,172.183024 225.202083,168.035757 229.579186,166.29195 C233.478786,164.738377 234.766009,167.329443 236.024467,170.383149 Z M44.2972214,130.875574 L44.2285601,130.908567 C36.7041541,134.419867 29.7979664,139.412861 23.4952759,145.910685 C26.6854811,154.55818 30.1953956,159.660595 33.6249811,161.319868 C41.4240474,165.093147 48.744829,167.317669 55.3642529,168.338339 C57.4361074,168.657805 59.2916936,168.834264 60.9091273,168.899706 L61.625256,168.921932 L61.9675451,168.927491 C66.1785367,156.842926 65.6769878,146.755551 60.6629507,138.427605 L60.4152214,138.024574 L60.1499974,138.101959 C49.2757604,141.311433 42.1577943,147.951918 38.4326948,158.265012 L38.2605643,158.751129 L29.7580858,155.800221 C32.8561514,146.873736 38.0700892,139.959996 45.2859114,135.134779 L45.0864814,134.239213 L44.2972214,130.875574 Z M368.762402,130.875574 L367.973142,134.239213 L367.773712,135.134779 C374.989534,139.959996 380.203472,146.873736 383.301537,155.800221 L383.301537,155.800221 L374.799059,158.751129 L374.626928,158.265012 C370.901829,147.951918 363.783863,141.311433 352.909626,138.101959 L352.909626,138.101959 L352.644402,138.024574 L352.396672,138.427605 C347.382635,146.755551 346.881086,156.842926 351.092078,168.927491 L351.092078,168.927491 L351.434367,168.921932 L352.150496,168.899706 C353.767929,168.834264 355.623516,168.657805 357.69537,168.338339 C364.314794,167.317669 371.635576,165.093147 379.434642,161.319868 C382.864227,159.660595 386.374142,154.55818 389.564347,145.910685 C383.261657,139.412861 376.355469,134.419867 368.831063,130.908567 L368.831063,130.908567 L368.762402,130.875574 Z M119.680947,86.6581201 L122.803994,88.4100732 L123.946572,92.9042138 L120.21415,97.4745263 L119.147744,97.4745263 L119.147744,99.7596826 L126.764931,99.7596826 L127.16789,99.7662653 C128.233669,99.8013733 129.229232,99.9769135 130.15458,100.292886 C131.195595,100.648354 132.249306,101.029214 133.315712,101.435464 L133.315712,101.435464 L133.315712,102.578042 L134.382119,102.578042 L134.915322,107.605386 L134.699755,107.932163 C134.046201,108.887358 133.330947,109.616323 132.553994,110.119058 C131.690712,110.677651 130.738564,111.236245 129.697548,111.794839 C128.656533,112.353433 127.691689,113.013589 126.803017,113.775308 C125.914345,114.537026 124.962197,114.917886 123.946572,114.917886 L123.946572,114.917886 L123.413369,120.097573 L123.514677,120.331421 C123.802607,121.04896 123.946572,121.910464 123.946572,122.915933 C123.946572,124.03312 124.200478,124.959878 124.70829,125.696206 C125.216103,126.432534 125.736611,127.181558 126.269814,127.943276 C126.803017,128.704995 127.425087,129.466714 128.136025,130.228433 L128.136025,130.228433 L139.561806,136.931558 L139.561806,137.540933 L140.095009,137.540933 L140.095009,139.216714 L145.42704,140.359292 L145.960244,143.710854 L145.84789,143.933657 C145.493691,144.584927 144.985244,145.081948 144.322548,145.424722 C143.58622,145.805581 142.875283,146.084878 142.189736,146.262612 C141.504189,146.440347 140.805947,146.529214 140.095009,146.529214 C139.384072,146.529214 138.698525,146.732339 138.038369,147.138589 C137.327431,146.732339 136.540322,146.440347 135.67704,146.262612 C134.813759,146.084878 134.02665,145.894448 133.315712,145.691323 C132.604775,145.488198 131.906533,145.208901 131.220986,144.853433 C130.535439,144.497964 129.837197,144.117104 129.126259,143.710854 L129.126259,143.710854 L128.593056,142.568276 L127.602822,142.568276 L127.602822,141.425698 L126.003212,140.892495 L124.479775,136.398354 L123.413369,136.398354 L123.406316,136.275633 C123.3687,135.937091 123.180621,135.508272 122.84208,134.989175 C122.46122,134.40519 122.093056,133.935464 121.737587,133.579995 C121.382119,133.224526 121.204384,132.665933 121.204384,131.904214 C121.204384,131.142495 121.02665,130.583901 120.671181,130.228433 L120.671181,130.228433 L119.147744,129.619058 L119.141161,129.988162 C119.106053,130.963664 118.930513,131.868949 118.61454,132.704018 C118.259072,133.643472 117.827431,134.582925 117.319619,135.522378 C116.811806,136.461831 116.202431,137.312417 115.491494,138.074136 C114.780556,138.835854 114.247353,139.775308 113.891884,140.892495 L113.891884,140.892495 L109.2454,143.177651 L109.2454,136.398354 L109.778603,135.255776 L111.30204,134.722573 L111.697182,134.15664 C112.608071,132.848626 113.441201,131.628091 114.196572,130.495034 C115.059853,129.200112 115.669228,127.702065 116.024697,126.000893 C116.380165,124.299722 116.646767,122.611245 116.824501,120.935464 C117.002236,119.259683 117.091103,117.431558 117.091103,115.451089 L117.091103,115.451089 L116.024697,107.605386 L117.091103,107.605386 L119.147744,108.747964 L119.147744,109.890542 L120.21415,109.890542 L120.21415,110.423745 L121.204384,110.423745 L121.204384,109.890542 L123.413369,108.747964 L123.413369,108.138589 L123.946572,108.138589 L123.946572,107.605386 L125.470009,105.320229 L123.641884,105.320229 L123.397823,105.314789 C122.900374,105.293025 122.346962,105.205972 121.737587,105.053628 C121.02665,104.875893 120.417275,104.698159 119.909462,104.520425 C119.40165,104.34269 118.970009,104.050698 118.61454,103.644448 L118.61454,103.644448 L118.081337,101.435464 L117.091103,101.435464 L116.969322,101.681847 C116.635796,102.318807 116.232053,102.795273 115.758095,103.111245 C115.224892,103.466714 114.704384,103.834878 114.196572,104.215737 C113.688759,104.596597 113.079384,104.875893 112.368447,105.053628 C111.657509,105.231362 110.971962,105.320229 110.311806,105.320229 L110.311806,105.320229 L109.778603,100.292886 L110.311806,99.1503076 L110.529507,99.0242948 C111.103774,98.6681992 111.627887,98.1516096 112.101845,97.4745263 C112.635048,96.7128076 113.066689,96.0526513 113.396767,95.4940576 L113.525307,95.2792291 C113.836342,94.7654656 114.225136,94.1642236 114.691689,93.4755029 C115.224892,92.6883935 115.669228,91.9393701 116.024697,91.2284326 L116.024697,91.2284326 L116.024697,88.9432763 L114.95829,88.9432763 L114.95829,87.8006982 L115.171572,87.5965576 C115.455947,87.3365576 115.740322,87.1253076 116.024697,86.9628076 C116.380165,86.7596826 116.722939,86.6581201 117.053017,86.6581201 L117.053017,86.6581201 L119.680947,86.6581201 Z M323.751259,82.7733544 L330.6829,85.6678857 L331.292275,89.1717919 L330.971265,89.4065257 C330.340126,89.866666 329.774278,90.2708433 329.27372,90.6190576 C328.689736,91.0253076 328.016884,91.2919091 327.255165,91.4188622 C326.493447,91.5458154 325.61747,91.7489404 324.627236,92.0282372 C323.637001,92.3075341 322.761025,92.4471826 321.999306,92.4471826 L321.999306,92.4471826 L321.999306,93.5897607 L327.178994,95.1893701 L327.178994,95.9510888 L328.930947,96.4081201 L328.930947,97.1698388 L338.757119,99.1503076 L338.757119,101.511636 L338.223915,102.425698 L337.005165,102.425698 L337.005165,103.187417 L332.968056,103.187417 L329.540322,102.730386 L329.33982,102.816 C328.695611,103.109776 328.292719,103.487488 328.131142,103.949136 C327.953408,104.456948 327.86454,104.990151 327.86454,105.548745 L327.86454,105.548745 L327.86454,108.747964 L329.196771,108.849008 C331.870559,109.035552 334.600311,109.128823 337.386025,109.128823 C340.636025,109.128823 343.797158,109.319253 346.869423,109.700112 C349.941689,110.080972 353.02665,110.423745 356.124306,110.728433 C359.221962,111.03312 362.319619,111.43937 365.417275,111.947183 L365.417275,111.947183 L365.417275,113.165933 L363.055947,116.746011 L357.266884,116.746011 L356.379006,116.61271 C354.323952,116.301675 352.385537,115.99064 350.563759,115.679604 C348.481728,115.324136 346.387001,114.943276 344.27958,114.537026 C342.172158,114.130776 339.963173,113.800698 337.652626,113.546792 C335.34208,113.292886 333.018837,113.013589 330.6829,112.708901 L330.6829,112.708901 L328.397744,114.68937 L327.86454,114.68937 L326.64579,116.746011 L327.178994,117.12687 L326.64579,117.964761 L327.178994,118.726479 L326.64579,119.107339 L327.178994,121.087808 L325.42704,131.066323 L326.112587,131.066323 L326.112587,134.18937 L327.178994,136.246011 L323.751259,140.663979 L321.999306,141.044839 L321.999306,141.806558 L321.431191,142.060464 C320.468463,142.483641 319.426389,142.906818 318.30497,143.329995 C316.959267,143.837808 315.512001,144.231362 313.963173,144.510659 C312.414345,144.789956 310.96708,145.056558 309.621376,145.310464 C308.275673,145.56437 306.841103,145.97062 305.317665,146.529214 L305.317665,146.529214 L304.098915,146.148354 L303.565712,144.929604 L297.77665,144.548745 L297.77665,141.425698 L299.604775,139.445229 L300.015389,139.346444 C300.954048,139.107613 301.75663,138.810464 302.423134,138.454995 C303.184853,138.048745 304.048134,137.705972 305.012978,137.426675 C305.977822,137.147378 306.942665,136.880776 307.907509,136.62687 C308.872353,136.372964 309.887978,136.398354 310.954384,136.703042 L310.954384,136.703042 L310.954384,136.246011 L318.038369,134.18937 L318.272581,134.027109 C319.639877,133.04215 320.323525,131.852096 320.323525,130.456948 C320.323525,128.984292 320.399697,127.524331 320.55204,126.077065 C320.704384,124.6298 320.882119,123.169839 321.085244,121.697183 C321.288369,120.224526 321.389931,118.701089 321.389931,117.12687 L321.389931,117.12687 L320.780556,115.527261 L318.571572,115.527261 L318.087119,115.670464 C317.445244,115.849214 316.819619,115.979214 316.210244,116.060464 C315.448525,116.162026 314.686806,116.365151 313.925087,116.669839 C313.163369,116.974526 312.21122,117.12687 311.068642,117.12687 L311.068642,117.12687 L308.212197,117.12687 L305.850869,116.746011 L305.5182,116.850941 C304.840425,117.05303 304.088034,117.208483 303.261025,117.3173 C302.296181,117.444253 301.445595,117.710854 300.709267,118.117104 C299.972939,118.523354 299.21122,118.929604 298.424111,119.335854 C297.637001,119.742104 296.837197,120.199136 296.024697,120.706948 L296.024697,120.706948 L293.73954,123.068276 L291.454384,123.525308 L291.240662,123.440952 C290.554486,123.15557 290.130609,122.828219 289.969033,122.458901 C289.791298,122.052651 289.702431,121.582925 289.702431,121.049722 C289.702431,120.516518 289.423134,120.122964 288.86454,119.869058 C288.305947,119.615151 288.204384,119.234292 288.559853,118.726479 L288.559853,118.726479 L290.768837,116.212808 L291.09241,116.024266 C292.187775,115.413632 293.451011,114.981362 294.882119,114.727456 C296.456337,114.448159 298.005165,114.118081 299.528603,113.737222 C301.05204,113.356362 302.588173,112.886636 304.137001,112.328042 C305.68583,111.769448 307.221962,111.490151 308.7454,111.490151 L308.7454,111.490151 L308.7454,110.728433 L320.323525,108.747964 L320.323525,105.929604 L319.104775,104.406167 L316.819619,104.406167 L316.244098,104.510903 C315.299002,104.690754 314.424436,104.897052 313.6204,105.1298 C312.655556,105.409097 311.703408,105.815347 310.763955,106.34855 C309.824501,106.881753 308.872353,107.414956 307.907509,107.948159 C306.942665,108.481362 305.876259,108.747964 304.70829,108.747964 C304.30204,108.443276 303.908486,108.100503 303.527626,107.719643 C303.146767,107.338784 302.956337,106.945229 302.956337,106.538979 C302.956337,106.132729 302.854775,105.726479 302.65165,105.320229 C302.448525,104.913979 302.346962,104.456948 302.346962,103.949136 L302.346962,103.949136 L302.956337,102.730386 L304.098915,102.730386 L305.850869,100.749917 L306.171879,100.539278 C306.803017,100.131992 307.368865,99.8086502 307.869423,99.5692529 C308.453408,99.289956 309.227822,99.1503076 310.192665,99.1503076 L310.506757,99.1456056 C311.324272,99.1205284 311.981294,98.9951426 312.477822,98.7694482 C313.036415,98.5155419 313.899697,98.3885888 315.067665,98.3885888 L315.067665,98.3885888 L315.067665,97.1698388 L313.925087,93.9706201 L318.571572,93.2089013 L318.571572,92.4471826 L318.167438,92.3022444 C317.497407,92.0730235 316.845009,91.9055159 316.210244,91.7997216 C315.448525,91.6727685 314.496376,91.6092919 313.353798,91.6092919 L313.353798,91.6092919 L310.497353,91.6092919 L310.268837,91.600913 C309.58329,91.5506396 308.897744,91.2741357 308.212197,90.7714013 L308.212197,90.7714013 L307.602822,89.7049951 L310.421181,87.6483544 L316.286415,86.4296044 L318.038369,84.0682763 L323.751259,82.7733544 Z M176.837197,85.7440576 L177.328124,85.8735497 C178.811191,86.2391747 180.386806,86.3991357 182.05497,86.3534326 C183.908486,86.3026513 185.635048,86.4549951 187.234658,86.8104638 C188.834267,87.1659326 190.459267,87.6229638 192.109658,88.1815576 C193.760048,88.7401513 195.372353,89.4003076 196.946572,90.1620263 L196.946572,90.1620263 L197.098915,94.8846826 L190.624306,108.062417 L188.948525,109.81437 L186.587197,109.81437 L184.149697,108.747964 L184.149697,110.576089 L183.387978,110.576089 L183.045205,110.457642 C181.994033,110.112583 180.737197,109.860073 179.274697,109.700112 C177.649697,109.522378 176.138955,109.446206 174.74247,109.471597 C173.345986,109.496987 171.847939,109.535073 170.24833,109.585854 C168.64872,109.636636 167.061806,109.687417 165.487587,109.738198 L165.487587,109.738198 L158.784462,111.109292 L158.624346,111.780071 C158.288568,113.113856 157.859518,114.401005 157.337197,115.641518 C156.727822,117.088784 156.2454,118.599526 155.889931,120.173745 C155.534462,121.747964 155.382119,123.322183 155.4329,124.896401 C155.483681,126.47062 155.534462,128.044839 155.585244,129.619058 C157.971962,131.497964 160.790322,132.615151 164.040322,132.97062 C167.290322,133.326089 170.400673,133.745034 173.371376,134.227456 C176.34208,134.709878 179.566689,135.027261 183.045205,135.179604 C186.52372,135.331948 189.887978,135.357339 193.137978,135.255776 L193.137978,135.255776 L209.743447,129.085854 L213.247353,120.706948 L213.247353,122.535073 L213.457287,122.593586 C214.549523,122.930956 215.203178,123.673171 215.418251,124.820229 C215.646767,126.038979 215.875283,127.118081 216.103798,128.057534 C216.332314,128.996987 216.471962,130.050698 216.522744,131.218667 C216.573525,132.386636 216.598915,133.579995 216.598915,134.798745 L216.598915,134.798745 L213.628212,138.378823 L211.190712,139.673745 L207.077431,143.101479 L205.862913,143.143797 C205.056055,143.166367 204.25484,143.177651 203.459267,143.177651 C202.265908,143.177651 201.174111,143.495034 200.183876,144.1298 C199.193642,144.764565 198.076455,144.993081 196.832314,144.815347 C195.588173,144.637612 194.407509,144.548745 193.290322,144.548745 L193.290322,144.548745 L183.007119,142.949136 L182.854775,141.958901 L181.941902,141.85595 C179.814644,141.59768 177.706826,141.213052 175.618447,140.702065 C173.231728,140.118081 170.946572,139.572183 168.762978,139.06437 C166.579384,138.556558 164.268837,138.213784 161.831337,138.03605 C159.393837,137.858315 156.930947,137.413979 154.442665,136.703042 C153.223915,135.890542 152.601845,134.798745 152.576455,133.427651 L152.576455,133.427651 L152.500283,129.31437 L152.48396,128.733754 C152.440433,127.586512 152.331616,126.523215 152.157509,125.543862 C151.954384,124.401284 151.852822,123.042886 151.852822,121.468667 L151.852822,121.468667 L154.442665,105.853433 L153.757119,102.273354 L155.585244,101.663979 L156.727822,102.197183 L158.098915,105.091714 L159.850869,105.777261 L168.153603,101.359292 L168.762978,96.6366357 L167.391884,93.6659326 L166.249306,93.7421044 L154.899697,96.3319482 L154.137978,91.6092919 L155.813759,88.0292138 L163.126259,86.7342919 L167.23954,87.2674951 L176.837197,85.7440576 Z M78.2434467,101.968667 L79.3860248,102.578042 L79.558205,103.229735 C80.1691669,105.634791 80.5561094,108.210529 80.7190326,110.956948 C80.896767,113.953042 80.9856342,116.974526 80.9856342,120.021401 C80.9856342,123.068276 81.0745014,126.000893 81.2522358,128.819253 C81.4299701,131.637612 81.5188373,134.544839 81.5188373,137.540933 L81.5188373,137.540933 L84.1086811,137.540933 L98.7336811,136.398354 L105.58915,137.540933 L106.122353,141.425698 L102.466103,142.111245 L93.4778217,141.425698 L76.1868061,144.320229 L75.6536029,140.892495 L75.8868205,140.526682 C76.4987032,139.568734 77.030339,138.751219 77.4817279,138.074136 C77.9895404,137.312417 78.1672748,136.284097 78.0149311,134.989175 C77.8625873,133.694253 77.7864154,132.386636 77.7864154,131.066323 L77.7864154,131.066323 L77.7864154,127.410073 L77.6851068,126.840308 C77.3971772,125.112729 77.2532123,123.22062 77.2532123,121.163979 C77.2532123,118.878823 76.8215717,116.796792 75.9582904,114.917886 C75.0950092,113.038979 74.6633686,111.071206 74.6633686,109.014565 L74.6633686,109.014565 L74.6633686,102.578042 L78.2434467,101.968667 Z M266.595009,85.5917138 L270.860634,88.7909326 L270.860634,91.5331201 L267.509072,97.3983544 L268.250572,97.4063478 C270.219129,97.448979 272.11747,97.6621348 273.945595,98.0458154 C276.002236,98.477456 278.058876,98.9344872 280.115517,99.4169091 C282.172158,99.899331 284.228798,100.28019 286.285439,100.559487 C288.34208,100.838784 290.335244,101.28312 292.264931,101.892495 L292.264931,101.892495 L289.903603,103.263589 L287.999306,105.091714 L286.55204,105.091714 L273.221962,102.806558 L273.221962,103.72062 L277.030556,105.548745 L277.030556,106.386636 L277.944619,106.386636 L278.066613,106.618722 C278.369316,107.168588 278.798378,107.776772 279.353798,108.443276 C279.988564,109.204995 280.559853,109.890542 281.067665,110.499917 C281.575478,111.109292 281.892861,111.794839 282.019814,112.556558 C282.146767,113.318276 282.210244,114.130776 282.210244,114.994058 C281.600869,115.603433 281.131142,116.212808 280.801064,116.822183 C280.470986,117.431558 280.077431,118.117104 279.6204,118.878823 C279.163369,119.640542 278.845986,120.326089 278.668251,120.935464 C278.490517,121.544839 278.40165,122.281167 278.40165,123.144448 C279.366494,123.753823 280.24247,124.287026 281.02958,124.744058 C281.816689,125.201089 282.527626,125.810464 283.162392,126.572183 C283.797158,127.333901 284.368447,128.09562 284.876259,128.857339 C285.384072,129.619058 285.942665,130.456948 286.55204,131.371011 L286.55204,131.371011 L287.542275,139.445229 L286.55204,139.445229 L286.55204,138.531167 L285.637978,138.531167 L285.637978,139.06437 L283.733681,139.06437 L282.743447,137.236245 L281.296181,137.236245 L278.40165,139.06437 L277.944619,139.978433 L277.030556,139.978433 L277.030556,139.445229 L274.136025,139.445229 L269.8704,139.978433 L267.509072,137.693276 L267.05204,134.494058 L269.337197,128.628823 L270.327431,128.628823 L272.231728,121.392495 L267.509072,120.478433 L267.50246,120.329263 C267.453971,119.793944 267.138792,119.386636 266.556923,119.107339 C265.922158,118.802651 265.604775,118.34562 265.604775,117.736245 L265.604775,117.736245 L265.604775,114.156167 L267.966103,111.871011 L267.907808,111.676306 C267.685511,110.837638 267.857286,110.064649 268.423134,109.357339 C269.032509,108.59562 269.502236,107.846597 269.832314,107.110268 C270.162392,106.37394 270.416298,105.624917 270.594033,104.863198 C270.771767,104.101479 270.987587,103.263589 271.241494,102.349526 L271.241494,102.349526 L266.595009,101.892495 L264.157509,102.806558 L263.774318,102.675977 C263.025035,102.414816 262.378352,102.153656 261.834267,101.892495 C261.199501,101.587808 260.399697,101.435464 259.434853,101.435464 L259.434853,101.435464 L254.178994,101.435464 L249.913369,102.349526 L249.913369,103.263589 L251.284462,105.548745 L257.987587,109.128823 L258.123609,109.38532 C258.406533,109.888987 258.754747,110.336691 259.168251,110.728433 C259.650673,111.185464 259.891884,111.642495 259.891884,112.099526 C259.891884,112.556558 259.968056,113.089761 260.1204,113.699136 C260.272744,114.308511 260.348915,114.892495 260.348915,115.451089 L260.348915,115.451089 L259.891884,116.822183 L258.90165,116.822183 L258.90165,118.878823 L258.895302,119.253335 C258.874143,119.866942 258.800087,120.427651 258.673134,120.935464 C258.52079,121.544839 258.203408,122.065347 257.720986,122.496987 C257.238564,122.928628 256.997353,123.449136 256.997353,124.058511 C257.962197,124.972573 258.762001,125.962808 259.396767,127.029214 C260.031533,128.09562 260.590126,129.238198 261.072548,130.456948 C261.55497,131.675698 262.024697,132.805581 262.481728,133.846597 C262.938759,134.887612 263.040322,136.169839 262.786415,137.693276 L262.786415,137.693276 L262.253212,138.531167 L258.444619,139.445229 L258.444619,140.359292 L256.08329,139.978433 L256.08329,140.359292 L253.188759,140.892495 L253.188759,139.978433 L252.274697,139.978433 L251.284462,140.892495 L251.284462,140.359292 L250.294228,140.359292 L250.294228,140.892495 L248.466103,141.273354 L248.009072,142.187417 L246.028603,142.187417 L245.11454,141.806558 L245.107685,141.628315 C245.071122,141.16519 244.88831,140.799565 244.559247,140.53144 L244.559247,140.53144 L244.428994,140.435464 C243.971962,140.130776 243.743447,139.673745 243.743447,139.06437 L243.743447,139.06437 L243.743447,135.40812 L246.561806,130.456948 L247.55204,130.456948 L247.55204,128.628823 L248.923134,128.628823 L248.932275,128.263198 C248.95665,127.775698 249.029775,127.288198 249.15165,126.800698 C249.303994,126.191323 249.532509,125.734292 249.837197,125.429604 C250.141884,125.124917 250.383095,124.667886 250.56083,124.058511 C250.738564,123.449136 250.827431,122.865151 250.827431,122.306558 L250.827431,122.306558 L243.210244,121.849526 L241.83915,116.365151 L241.943291,116.022973 C242.207116,115.225945 242.616738,114.438638 243.172158,113.66105 C243.806923,112.772378 244.441689,111.794839 245.076455,110.728433 C245.71122,109.662026 246.193642,108.671792 246.52372,107.757729 C246.853798,106.843667 247.018837,105.802651 247.018837,104.634683 L247.018837,104.634683 L245.647744,104.634683 L244.124306,105.091714 L244.124306,106.005776 L240.315712,109.128823 L237.040322,110.042886 L235.669228,106.386636 L237.573525,102.349526 L237.731158,102.201943 C238.328543,101.678262 239.13928,101.346597 240.163369,101.206948 C241.280556,101.054604 242.308876,100.838784 243.24833,100.559487 C244.187783,100.28019 245.139931,100.051675 246.104775,99.8739404 C247.069619,99.696206 248.009072,99.4803857 248.923134,99.2264794 L248.923134,99.2264794 L248.923134,98.3124169 L246.561806,97.3983544 L246.393593,97.0936669 C246.129107,96.5858544 245.943968,96.0780419 245.838173,95.5702294 C245.71122,94.9608544 245.393837,94.4276513 244.886025,93.9706201 C244.378212,93.5135888 244.124306,92.993081 244.124306,92.4090966 L244.124306,92.4090966 L244.124306,90.6190576 L245.11454,89.1717919 L248.466103,88.2577294 L252.274697,89.7049951 L252.274697,90.6190576 L253.721962,90.9999169 L255.093056,95.5702294 L254.178994,97.3983544 L255.093056,97.3983544 L259.358681,95.1131982 L259.634804,94.6585473 C259.920449,94.2062768 260.234658,93.7611474 260.577431,93.3231591 C261.034462,92.7391747 261.428017,92.1424951 261.758095,91.5331201 C262.088173,90.9237451 262.253212,90.1620263 262.253212,89.2479638 C262.253212,88.3339013 262.430947,87.5721826 262.786415,86.9628076 L262.786415,86.9628076 L266.595009,85.5917138 Z M141.161415,136.931558 L141.161415,137.540933 L140.627619,137.541589 L140.628212,136.931558 L141.161415,136.931558 Z M255.626259,126.800698 L254.636025,126.800698 L253.188759,128.171792 L250.294228,134.494058 L253.188759,134.494058 L253.721962,134.037026 L254.178994,134.494058 L254.636025,134.037026 L256.997353,133.199136 L257.530556,131.75187 L255.626259,126.800698 Z M277.030556,125.429604 L275.659462,125.429604 L272.764931,129.542886 L272.231728,129.542886 L271.774697,132.665933 L277.563759,133.579995 L277.944619,133.199136 L277.563759,132.665933 L278.934853,131.371011 L278.934853,132.665933 L279.848915,132.665933 L280.305947,130.837808 L277.030556,125.429604 Z M90.3547748,116.593667 L92.9446186,118.954995 L93.4778217,126.800698 L91.9543842,130.761636 L85.1750873,133.046792 L85.1750873,132.437417 L83.5754779,119.488198 L85.1750873,117.203042 L90.3547748,116.593667 Z M102.466103,117.203042 L105.055947,119.488198 L105.055947,123.449136 L104.885618,123.540383 C104.288233,123.883686 103.98954,124.322996 103.98954,124.858315 L103.98954,124.858315 L103.98954,126.838784 L103.986249,127.077644 C103.968695,127.69705 103.880925,128.176024 103.722939,128.514565 C103.545205,128.895425 103.456337,129.466714 103.456337,130.228433 L103.456337,130.228433 L97.1340717,131.294839 C96.4231342,130.583901 96.0676654,129.657143 96.0676654,128.514565 L96.0676654,128.514565 L96.0676654,125.124917 L96.0609499,124.558198 C96.0430417,123.81302 95.9893172,123.109627 95.8997764,122.44802 L95.8997764,122.44802 L95.8391498,122.039956 C95.6868061,121.100503 95.6106342,120.072183 95.6106342,118.954995 C95.9153217,118.142495 96.334267,117.647378 96.8674701,117.469643 C97.4006733,117.291909 98.0100483,117.203042 98.6955951,117.203042 L98.6955951,117.203042 L102.466103,117.203042 Z M89.8215717,121.240151 L85.6321186,121.240151 L85.6321186,124.591714 L86.1653217,127.410073 L87.7649311,127.410073 L87.7649311,126.267495 L89.2883686,126.267495 L89.8215717,121.240151 Z M99.7239154,120.097573 L98.2004779,120.630776 L98.2004779,126.267495 L99.7239154,126.267495 L100.257119,125.734292 L101.9329,121.240151 L99.7239154,120.097573 Z M100.866494,118.954995 L100.257119,119.488198 L100.866494,120.097573 L101.399697,119.488198 L100.866494,118.954995 Z M275.354775,109.128823 L274.136025,109.128823 L269.337197,112.785073 L269.337197,114.156167 L272.764931,115.451089 L274.136025,114.156167 L275.126259,117.279214 L275.659462,116.822183 L277.030556,111.413979 L276.855361,111.231167 C276.631923,110.987417 276.449111,110.743667 276.306923,110.499917 C276.129189,110.195229 276.040322,109.890542 276.040322,109.585854 C276.040322,109.281167 275.811806,109.128823 275.354775,109.128823 L275.354775,109.128823 Z M250.827431,108.671792 L248.466103,114.156167 L247.55204,114.156167 L247.55204,115.451089 L253.188759,115.90812 L253.721962,115.451089 L255.093056,112.785073 L250.827431,108.671792 Z M224.662392,104.634683 C225.297158,104.329995 225.944619,104.329995 226.604775,104.634683 L226.604775,104.634683 L232.241494,107.300698 L233.688759,111.413979 L231.784462,113.699136 L226.109658,113.699136 L225.802149,113.704778 C224.997172,113.734871 224.312566,113.885334 223.74833,114.156167 C223.113564,114.460854 222.288369,114.740151 221.272744,114.994058 L221.272744,114.994058 L218.911415,112.785073 L218.530556,107.833901 L218.911415,106.919839 L219.158379,106.794869 C219.733239,106.522714 220.298378,106.386636 220.853798,106.386636 C221.488564,106.386636 222.12333,106.170815 222.758095,105.739175 C223.392861,105.307534 224.027626,104.93937 224.662392,104.634683 Z M93.5159076,99.1883935 C94.2014545,98.8075341 95.0520404,98.7948388 96.0676654,99.1503076 L96.0676654,99.1503076 L99.2668842,100.826089 L99.7239154,105.320229 L97.6672748,108.747964 L96.0676654,108.747964 L96.0676654,110.423745 L88.2981342,111.566323 L88.2981342,112.632729 L87.7649311,112.632729 L87.7649311,112.099526 L87.4094623,111.342039 C87.1724831,110.839869 86.935504,110.343341 86.6985248,109.852456 C86.3430561,109.116128 86.1653217,108.278237 86.1653217,107.338784 L86.1653217,107.338784 L86.1653217,101.435464 L86.8720274,101.037677 C87.3403434,100.778129 87.803017,100.529865 88.2600483,100.292886 C88.9455951,99.9374169 89.8215717,99.7596826 90.8879779,99.7596826 C91.9543842,99.7596826 92.8303608,99.5692529 93.5159076,99.1883935 Z M95.6106342,103.111245 L93.4778217,103.111245 L90.8879779,103.644448 L90.8879779,104.787026 L88.2981342,105.320229 L88.2981342,108.138589 L89.2883686,108.138589 L94.0110248,107.072183 L93.4778217,106.462808 L95.6106342,104.787026 L95.6106342,103.111245 Z M172.876259,91.8378076 L171.886025,104.177651 L184.606728,104.634683 L187.1204,103.872964 L186.968056,102.730386 L189.253212,94.4276513 L187.882119,92.1424951 L172.876259,91.8378076 Z M95.0774311,100.826089 L94.5442279,101.968667 L95.0774311,101.968667 L95.6106342,101.435464 L95.0774311,100.826089 Z M231.784462,89.1717919 L236.050087,93.2850732 L236.050087,96.8651513 L235.669228,97.7792138 L235.501015,97.9252099 C234.872597,98.4372542 234.116168,98.6932763 233.231728,98.6932763 L233.231728,98.6932763 L230.375283,98.6932763 L230.067774,98.6989187 C229.262797,98.7290113 228.578191,98.8794742 228.013955,99.1503076 C227.379189,99.4549951 226.579384,99.6073388 225.61454,99.6073388 C225.259072,99.3534326 225.017861,98.9217919 224.890908,98.3124169 C224.763955,97.7030419 224.446572,97.1698388 223.938759,96.7128076 L223.776541,96.5576426 C223.362768,96.1363463 223.099458,95.6548649 222.986611,95.1131982 C222.859658,94.5038232 222.796181,93.8944482 222.796181,93.2850732 L222.796181,93.2850732 L223.17704,90.6190576 L231.784462,89.1717919 Z M99.2668842,88.9432763 L103.456337,90.0858544 L103.98954,94.1229638 L101.9329,94.6561669 L92.4875873,93.4374169 L91.9628477,93.6627587 C91.1023877,94.0330387 90.3124571,94.3768701 89.5930561,94.6942529 C88.7297748,95.0751122 87.7776264,95.3544091 86.7366108,95.5321435 C85.6955951,95.7098779 84.7307514,96.0780419 83.8420795,96.6366357 C82.9534076,97.1952294 82.0012592,97.6522607 80.9856342,98.0077294 L80.9856342,98.0077294 L80.9856342,96.9413232 L80.4524311,92.9042138 L81.5188373,90.6190576 L99.2668842,88.9432763 Z M95.6106342,90.6190576 L95.6106342,91.7616357 L97.1340717,91.7616357 L97.6672748,91.2284326 L95.6106342,90.6190576 Z M313.796129,8.37311494 L314.580538,9.00519707 L315.317215,9.61005521 L315.943758,10.1365529 L316.613415,10.7145473 L317.151224,11.1914552 L318.123546,12.0828178 L318.711264,12.638396 L319.494349,13.3951864 L320.526546,14.415413 L322.322546,16.2314002 L325.045275,19.0359165 L329.607836,23.7845081 C333.048197,27.3733921 336.310329,30.0186673 339.761515,32.1972112 C340.929827,32.9347025 342.089376,33.6026796 343.444255,34.3301622 L344.09966,34.6786323 L347.84787,36.6334687 L348.088908,36.7624114 C354.364879,40.1549478 357.673985,43.6929019 359.766509,50.5847894 C361.464144,56.1760784 359.21101,61.0773862 354.252878,64.1848628 C350.703025,66.4097097 345.742722,67.8014127 339.61443,68.5455341 C329.65049,69.755395 316.633119,69.1393078 306.539805,67.203521 L305.630452,67.0239189 C296.735629,65.2151732 289.645306,67.6823916 283.711639,74.810877 L283.360221,75.2395888 L286.086872,82.0773468 L286.426476,82.942333 L276.648162,86.7678514 L274.884574,82.3174017 L272.521625,76.4337181 C271.861335,74.7960711 272.068507,72.9361915 273.072978,71.4839828 C281.641797,59.0956504 293.322621,53.9757417 307.247216,56.6406349 L307.722786,56.7345001 C316.865103,58.593573 329.244447,59.2275768 338.348775,58.1220934 C343.081834,57.5473867 346.684178,56.5366836 348.67674,55.2878589 L348.998333,55.0817427 C349.772629,54.5705297 349.897434,54.3433599 349.775786,53.8386702 L349.719403,53.635306 C348.579719,49.881671 347.26753,48.3417008 343.72531,46.3462866 L342.856717,45.8715603 L339.134508,43.9309449 C337.296511,42.9603851 335.747586,42.080417 334.156708,41.076183 C329.994091,38.4485515 326.067398,35.2643814 322.028029,31.0506299 L316.776257,25.5893897 L314.600637,23.355503 L313.579622,22.3223202 L312.68553,21.4310305 L312.014246,20.7734204 L311.391623,20.1750792 L310.80739,19.626052 L310.251278,19.1163835 L309.713017,18.6361185 L309.182336,18.1753021 L308.648966,17.7239791 L308.102636,17.2721942 L307.236377,16.5718743 C299.555041,10.4261075 293.04648,8.99695468 283.004194,12.0395156 C275.38408,14.3482189 269.093742,21.4546085 264.350711,33.6271604 L263.942179,34.6984188 C263.739869,35.2404392 263.540495,35.7920511 263.344076,36.3532767 L262.955182,37.4885525 L262.5742,38.649504 L262.201161,39.8361703 C261.955123,40.6358615 261.714401,41.4527221 261.479038,42.2868043 L261.130019,43.5508505 C260.957524,44.1893383 260.788055,44.8375279 260.621631,45.4954416 L260.292846,46.8242407 L259.972211,48.1790096 C259.602902,49.7747377 259.250298,51.4235676 258.914624,53.1257796 C258.245557,56.518637 254.53594,58.349075 251.4362,56.8158619 C240.042992,51.1804813 224.846568,48.3106103 205.845608,48.3106103 C186.870057,48.3106103 171.960513,51.1732586 161.123837,56.7739737 C157.687671,58.549886 153.576033,56.1264201 153.465525,52.2600411 C152.937298,33.7788346 146.818403,21.9751823 135.182894,16.0104682 C118.911655,7.66933803 109.254902,10.6304619 92.1420846,29.1683833 L91.0739272,30.3349626 L90.5324853,30.9332222 C90.0967053,31.4165273 89.6459926,31.8810193 89.170141,32.3357614 L88.6855318,32.7875891 C87.8626237,33.5363377 86.9604351,34.2663949 85.931715,35.0197201 L85.2989211,35.4748431 C85.1907988,35.5512741 85.0813167,35.6280218 84.9704275,35.7051281 L84.2878296,36.1724038 C84.1711232,36.2511122 84.0529151,36.3302629 83.9331583,36.4098982 L83.1956533,36.8938584 C83.0695122,36.9755992 82.9417277,37.0579083 82.8122527,37.1408278 L82.0147375,37.646004 L81.1743804,38.1678419 L79.828555,38.9862448 L75.6107765,41.4830944 L74.4610855,42.1729146 L73.374445,42.83737 L72.3498712,43.4778063 L71.7008176,43.8920845 L70.7775019,44.4954797 L70.1950427,44.88631 L69.6387112,45.2684589 L69.1082159,45.6423251 L68.6032653,46.0083075 L68.1235677,46.3668048 C68.0457064,46.4259527 67.9688851,46.4848054 67.8930978,46.5433711 L67.4507335,46.8913884 L67.0328935,47.2329174 C66.965281,47.2893204 66.8986782,47.3454696 66.833079,47.4013734 L66.4514791,47.7339177 C66.3898701,47.7888731 66.3292527,47.8435997 66.2696207,47.8981057 L65.9236048,48.2225625 L65.6009474,48.5421261 C65.2898719,48.859376 65.0133968,49.1698841 64.7702102,49.475445 L64.5380712,49.7794231 L64.3278331,50.0805018 C63.3309086,51.5793111 63.144335,52.9843433 63.6041413,54.5198959 L63.7046724,54.8288132 L63.8221488,55.1416098 C63.8431241,55.194088 63.8647933,55.2467444 63.8871503,55.2995874 L64.0294981,55.6189506 L64.1880624,55.9431899 C64.2158249,55.9976583 64.2442511,56.0523465 64.2733346,56.1072628 C64.5965623,56.7175887 66.400062,57.6590231 69.6801563,58.3236625 C73.1332239,59.0233511 77.6763231,59.3128602 82.9791187,59.2217385 L83.645901,59.208368 C84.1600724,59.1966012 84.6817912,59.1809796 85.2092768,59.1617936 L86.2714099,59.1187548 L87.3457564,59.0667268 L88.4291513,59.0062257 L89.5184295,58.9377674 L90.610426,58.8618682 L91.7019756,58.779044 L92.7899134,58.6898109 L93.8710742,58.5946851 L95.473185,58.4420763 L97.0422442,58.2791116 L98.5675697,58.1075329 L99.5548817,57.9892217 L100.98358,57.8071568 L102.340058,57.6211226 L103.19898,57.4957547 L104.017892,57.3699128 L104.793629,57.244113 L105.523026,57.1188715 L106.202917,56.9947041 L106.830138,56.8721272 C106.93011,56.8518589 107.027755,56.8316784 107.123008,56.8115963 L107.401523,56.7516566 C119.823899,54.0206909 130.099757,59.8873324 137.535656,73.1815472 L138.016573,74.0590798 C138.255011,74.5030994 138.490413,74.9549898 138.722755,75.4147106 C139.476873,76.9068363 139.475226,78.6689232 138.71832,80.1596366 L137.328209,82.9063357 L136.729149,84.097276 L135.472089,86.6225288 L135.207998,87.1610439 L125.772814,82.5537344 L126.930183,80.215297 L128.118221,77.8495888 L128.008454,77.6571921 C122.876075,68.7408439 117.065142,65.5093453 109.969892,66.9405971 L109.004573,67.1445093 L108.297211,67.2837247 L107.537113,67.4238934 L106.727448,67.5645 L105.871384,67.705029 L104.97209,67.8449651 L104.032735,67.9837928 L103.056487,68.1209968 L101.529873,68.322631 L99.9380743,68.5177126 L98.8459425,68.6432678 L97.7327613,68.7646223 L96.0304534,68.9376504 L94.8785118,69.0462483 L93.716611,69.1488417 L92.5479199,69.2449151 L91.3756071,69.3339532 C91.1800959,69.3481779 90.9845657,69.3620881 90.7890828,69.3756729 L89.6172786,69.4531915 C89.4222482,69.465432 89.227397,69.4773256 89.0327909,69.4888617 L87.8686248,69.5537013 C87.6752636,69.5637641 87.4822795,69.573448 87.2897386,69.582742 L86.1403402,69.633743 L85.0047476,69.6748739 L83.8861296,69.7056195 L82.7589398,69.7271352 L81.6511003,69.739488 C81.4680792,69.7407698 81.2858689,69.7416596 81.1044719,69.7421525 L80.0258672,69.740306 C79.6695977,69.7380757 79.3165997,69.7342172 78.9668919,69.7286899 L77.9276575,69.7070616 L76.9082756,69.6751783 L75.9088577,69.6327974 C75.4141584,69.6089421 74.9269875,69.5810591 74.4474077,69.549012 L73.4983883,69.4793252 C73.1854347,69.4542185 72.8758736,69.4272207 72.5697235,69.3982913 L71.6615249,69.3056676 C71.3622155,69.2728345 71.0663357,69.2380293 70.7739041,69.2012115 L69.9069727,69.0846803 C62.4835434,68.0217161 57.4036896,65.5709429 54.9942782,61.0214373 C51.4218866,54.275966 52.3461735,47.8738924 56.9791608,42.4247799 L57.3779319,41.9654283 L57.7839208,41.517266 C57.9206484,41.3695722 58.0588714,41.2234863 58.1988823,41.0787515 L58.6245712,40.6483434 L59.0627423,40.2245002 C59.2110747,40.0841421 59.3617798,39.9446212 59.5151503,39.8056806 L59.9835499,39.3903431 C60.0630467,39.3213247 60.1432828,39.2523872 60.224295,39.1834984 L60.7199723,38.7704939 L61.2360282,38.3571179 L61.7742174,37.941829 C61.8658576,37.8723692 61.9584931,37.8027654 62.0521604,37.7329856 L62.6268398,37.3119372 C62.724781,37.2413247 62.8238272,37.170472 62.9240149,37.0993469 L63.5391327,36.6690708 L64.1834029,36.2307161 C64.2933081,36.1568982 64.4045011,36.0826794 64.5170185,36.0080276 L65.2083074,35.5546648 L65.9331356,35.0893699 L67.0871026,34.3656829 L68.3264036,33.6064779 L69.6569607,32.8065528 L73.4653522,30.5568522 L74.7002613,29.8166292 L75.8340241,29.1229601 L76.5365192,28.6841218 L77.1983286,28.2625911 L78.118492,27.6597864 L78.686057,27.275604 L79.2189119,26.9039929 L79.7187641,26.5435998 L80.1873209,26.1930715 L80.6262896,25.8510547 L81.0373776,25.5161962 L81.4222921,25.1871428 C81.4843582,25.1327092 81.5454049,25.078461 81.6054678,25.0243702 L81.9543233,24.7014872 C82.0668628,24.5943383 82.1757514,24.4875932 82.2812737,24.3810262 L82.5880262,24.061634 L82.7343618,23.9019158 C103.720915,0.626620096 118.257923,-4.46504642 139.972812,6.66666323 C153.359822,13.5292504 161.13373,26.0604921 163.343299,43.7081573 L163.413221,44.2865888 L163.886829,44.1094876 C175.025236,39.9709759 188.685626,37.8929088 204.871429,37.8130071 L205.845608,37.8106103 C222.981595,37.8106103 237.498454,40.0216261 249.395413,44.5046482 L249.997221,44.7345888 L250.016758,44.654385 C251.094389,40.1688259 252.315947,36.0164796 253.684855,32.2015702 L254.122044,31.0080836 L254.569053,29.8370601 L255.025905,28.6885292 C260.798191,14.4725946 268.883282,5.53529193 279.491696,2.13643726 L279.959626,1.99060488 C293.414432,-2.08586376 303.488723,0.126253892 313.796129,8.37311494 Z" id="logo" fill="#774820"></path>
            </g>
        </g>
    </g>
</svg>